# Blender v2.79 (sub 0) OBJ File: ''
# www.blender.org
o Circle.006_Circle.000
v 0.038642 0.295481 -0.009535
v 0.015676 0.297378 -0.045378
v -0.026622 0.302109 -0.043354
v 0.019308 0.298314 0.028331
v -0.022991 0.303045 0.030355
v -0.026622 0.302109 -0.043354
v 0.019308 0.298314 0.028331
v -0.022991 0.303045 0.030355
v -0.026622 0.302109 -0.043354
v 0.038642 0.295481 -0.009535
v 0.007815 0.308098 -0.028104
v 0.015676 0.297378 -0.045378
v -0.022991 0.303045 0.030355
v 0.033307 0.311475 0.065874
v 0.019308 0.298314 0.028331
v 0.019308 0.298314 0.028331
v 0.078925 0.305185 -0.001681
v 0.049924 0.309436 0.055120
v -0.045957 0.304942 -0.005487
v -0.047738 0.320358 0.059792
v -0.082187 0.323204 0.006028
v -0.054164 0.318701 -0.070645
v 0.025902 0.309565 -0.084436
v 0.043499 0.307778 -0.075317
v 0.077947 0.304933 -0.021554
v -0.037730 0.318596 -0.115094
v 0.022766 0.306775 -0.118132
v -0.075750 0.327806 0.076509
v -0.110524 0.322673 0.025782
v 0.105184 0.298955 -0.040760
v -0.030142 0.318571 0.068910
v 0.034042 0.314533 0.099429
v -0.111731 0.329650 -0.030437
v -0.085268 0.318063 -0.084973
v 0.108351 0.305297 0.014746
v 0.080169 0.303264 0.069612
v -0.132930 0.313718 -0.053692
v -0.116129 0.311256 -0.086598
v -0.107826 0.313397 0.081941
v -0.127783 0.315046 0.050793
v -0.027557 0.316370 0.102746
v 0.021342 0.299863 0.125993
v -0.015416 0.303975 0.127753
v 0.123731 0.286896 0.037693
v 0.098732 0.287245 -0.095812
v 0.072610 0.306840 -0.092583
v -0.028657 0.300560 -0.141015
v -0.005416 0.277224 0.009477
v 0.013633 0.167475 -0.008204
v 0.000491 0.145687 0.017346
v 0.007620 0.275313 -0.016055
v -0.026622 0.302109 -0.043354
v 0.019308 0.298314 0.028331
v -0.020901 0.278503 -0.014690
v -0.045957 0.304942 -0.005487
v -0.015065 -0.004113 -0.006810
v -0.015065 0.145687 -0.006810
v 0.009772 0.308603 0.011648
v -0.013040 0.311154 0.012740
v -0.014998 0.310649 -0.027012
v -0.022991 0.303045 0.030355
v -0.025425 0.312177 -0.006591
v 0.020199 0.307074 -0.008774
v 0.000491 -0.004113 0.017346
v 0.013633 -0.004113 -0.008204
v 0.046467 0.166787 0.044024
v 0.064322 0.196389 0.009312
v 0.091683 0.175885 0.047595
v 0.099921 0.189542 0.031581
v -0.022991 0.303045 0.030355
v -0.045957 0.304942 -0.005487
v 0.015676 0.297378 -0.045378
v 0.038642 0.295481 -0.009535
v -0.045957 0.304942 -0.005487
v 0.015676 0.297378 -0.045378
v 0.038642 0.295481 -0.009535
v -0.083165 0.322952 -0.013845
v -0.037547 0.316662 -0.081400
v 0.106930 0.289359 0.070599
v 0.118689 0.285596 -0.064664
v 0.008101 0.296449 -0.142775
vt 0.000000 0.000000
vt 0.000000 0.000000
vt 0.000000 0.000000
vt 0.000000 0.000000
vt 0.000000 0.000000
vt 0.000000 0.000000
vt 0.000000 0.000000
vt 0.000000 0.000000
vt 0.000000 0.000000
vt 0.221677 0.687257
vt 0.190657 0.669432
vt 0.200951 0.651502
vt 0.076154 0.023995
vt 0.092349 0.036403
vt 0.089110 0.023995
vt 0.020933 0.079118
vt 0.033340 0.062924
vt 0.033340 0.082358
vt 0.053421 0.027235
vt 0.041014 0.043429
vt 0.041014 0.023995
vt 0.053402 0.059654
vt 0.040995 0.043459
vt 0.053403 0.046698
vt 0.069646 0.055763
vt 0.053451 0.043356
vt 0.056690 0.055763
vt 0.052790 0.066163
vt 0.065198 0.082357
vt 0.065198 0.062924
vt 0.072519 0.033100
vt 0.053755 0.033036
vt 0.030849 0.043014
vt 0.030513 0.024252
vt 0.075487 0.063291
vt 0.072915 0.036403
vt 0.091983 0.046643
vt 0.030755 0.062487
vt 0.030584 0.043723
vt 0.043579 0.063305
vt 0.043705 0.082069
vt 0.020933 0.058182
vt 0.021515 0.046939
vt 0.020933 0.038688
vt 0.021538 0.027445
vt 0.073218 0.046738
vt 0.087873 0.055762
vt 0.076622 0.055343
vt 0.052760 0.067495
vt 0.084571 0.077927
vt 0.075488 0.082056
vt 0.068408 0.023995
vt 0.185302 0.779616
vt 0.194070 0.805801
vt 0.184550 0.811106
vt 0.205453 0.820938
vt 0.194918 0.814147
vt 0.207185 0.812119
vt 0.194918 0.805650
vt 0.150975 0.838508
vt 0.150975 0.838508
vt 0.146295 0.831560
vt 0.164724 0.841260
vt 0.160655 0.832767
vt 0.166771 0.829939
vt 0.173796 0.837066
vt 0.194918 0.826711
vt 0.206681 0.820938
vt 0.206681 0.829913
vt 0.162689 0.809859
vt 0.173796 0.779616
vt 0.168870 0.806803
vt 0.184550 0.779616
vt 0.173796 0.806340
vt 0.175002 0.780508
vt 0.190454 0.705540
vt 0.169957 0.705076
vt 0.169792 0.669558
vt 0.159591 0.723160
vt 0.201198 0.723257
vt 0.159417 0.651502
vt 0.159182 0.687416
vt 0.138520 0.687465
vt 0.200960 0.687721
vt 0.206681 0.822624
vt 0.213979 0.820938
vt 0.213979 0.827003
vt 0.183567 0.811409
vt 0.174922 0.847299
vt 0.194918 0.846757
vt 0.185289 0.846862
vt 0.210028 0.802281
vt 0.194918 0.792418
vt 0.210028 0.787840
vt 0.195564 0.781727
vt 0.202535 0.779616
vt 0.000000 0.000000
vt 0.000000 0.000000
vt 0.000000 0.000000
vt 0.000000 0.000000
vt 0.000000 0.000000
vt 0.000000 0.000000
vt 0.000000 0.000000
vt 0.000000 0.000000
vt 0.000000 0.000000
vt 0.020933 0.066163
vt 0.053421 0.040191
vt 0.040996 0.062894
vt 0.072885 0.043355
vt 0.052790 0.079119
vt 0.052255 0.078743
vt 0.084131 0.066676
vt 0.057157 0.024416
vt 0.194918 0.779967
vt 0.207185 0.806390
vt 0.157500 0.828083
vt 0.164724 0.841260
vt 0.167615 0.782672
vt 0.184550 0.847167
vt 0.198906 0.805650
vn 0.1103 0.9937 -0.0181
vn -0.1103 -0.9937 0.0180
vn -0.1103 -0.9937 0.0181
vn -0.5028 -0.8182 0.2788
vn -0.5028 -0.8182 0.2789
vn -0.5028 -0.8181 0.2789
vn 0.0868 0.9296 -0.3582
vn 0.1985 -0.9646 0.1736
vn -0.3890 -0.8989 0.2017
vn -0.4058 -0.9032 -0.1396
vn -0.1205 -0.9383 -0.3243
vn 0.1817 -0.9689 -0.1677
vn -0.1635 -0.9853 0.0490
vn -0.1364 -0.9906 -0.0087
vn -0.1861 -0.9776 0.0983
vn -0.0257 -0.9974 0.0674
vn -0.1265 -0.9890 0.0761
vn 0.0602 -0.9964 0.0596
vn -0.1163 -0.9922 -0.0458
vn -0.1480 -0.9889 0.0118
vn -0.1739 -0.9830 0.0594
vn 0.0567 0.9983 0.0129
vn 0.0839 0.9955 -0.0448
vn 0.1063 0.9900 -0.0926
vn -0.1100 -0.9877 0.1115
vn -0.1649 -0.9858 0.0324
vn -0.0621 -0.9820 0.1785
vn -0.1099 -0.9923 -0.0574
vn -0.0661 -0.9978 0.0066
vn -0.1469 -0.9828 -0.1119
vn 0.2520 -0.9337 0.2544
vn 0.2756 -0.9156 0.2927
vn 0.2032 -0.9632 0.1758
vn 0.2801 -0.9449 -0.1695
vn 0.3271 -0.9297 -0.1693
vn 0.1834 -0.9684 -0.1688
vn -0.0894 -0.8912 -0.4447
vn -0.0708 -0.8776 -0.4742
vn -0.1208 -0.9115 -0.3932
vn 0.4836 0.8455 0.2264
vn 0.5018 0.8243 0.2622
vn 0.5183 0.8023 0.2960
vn 0.4990 0.8339 -0.2359
vn 0.5328 0.8129 -0.2353
vn 0.5646 0.7913 -0.2345
vn 0.1066 0.8726 -0.4767
vn 0.1219 0.8540 -0.5058
vn 0.1364 0.8349 -0.5332
vn -0.8857 -0.0801 -0.4572
vn -0.8655 -0.0703 -0.4960
vn -0.8621 -0.0687 -0.5021
vn -0.5576 0.7297 0.3959
vn 0.1166 0.7780 0.6174
vn -0.3747 0.6541 0.6570
vn 0.0000 0.0000 1.0000
vn -0.4737 0.8266 -0.3040
vn 0.0353 0.6428 -0.7653
vn 0.6134 0.7051 -0.3557
vn 0.7395 0.5846 0.3338
vn 0.8407 0.0026 -0.5414
vn 0.8407 0.0000 -0.5414
vn 0.8408 0.0027 -0.5413
vn 0.0466 0.0727 0.9963
vn 0.0094 0.0612 0.9981
vn 0.0561 0.0756 0.9956
vn 0.8419 0.0051 -0.5396
vn 0.8421 0.0050 -0.5393
vn -0.1203 -0.8742 -0.4704
vn 0.3341 -0.9118 0.2388
vn -0.0724 -0.8619 0.5019
vn -0.5268 -0.8243 -0.2073
vn -0.5268 -0.8244 -0.2073
vn -0.5267 -0.8244 -0.2073
vn 0.3102 -0.9179 -0.2473
vn -0.0000 1.0000 0.0000
vn 0.0485 -0.0000 0.9988
vn -0.8893 0.0000 -0.4574
vn -0.5529 0.7527 0.3575
vn -0.2050 0.7943 0.5719
vn 0.1103 0.9937 -0.0180
vn 0.1985 -0.9646 0.1735
vn -0.1634 -0.9853 0.0490
vn -0.1136 -0.9919 -0.0563
vn -0.0256 -0.9974 0.0674
vn -0.2097 -0.9743 0.0828
vn -0.0885 -0.9915 -0.0953
vn 0.0331 0.9975 0.0624
vn -0.2095 -0.9772 -0.0338
vn -0.0295 -0.9978 0.0596
vn 0.3019 -0.8922 0.3360
vn 0.3800 -0.9095 -0.1685
vn 0.3272 -0.9297 -0.1693
vn -0.0528 -0.8633 -0.5020
vn 0.4501 0.8778 0.1641
vn 0.4397 0.8666 -0.2359
vn 0.0804 0.9014 -0.4256
vn -0.8901 -0.0823 -0.4483
vn -0.4736 0.8267 -0.3037
vn 0.6164 0.6959 -0.3684
vn 0.4759 0.5372 0.6964
vn 0.6084 0.5385 0.5830
vn 0.0034 0.0594 0.9982
vn 0.3102 -0.9180 -0.2473
s 1
f 1/1/1 2/2/1 3/3/1
f 4/4/2 5/5/3 6/6/3
f 7/7/2 8/8/3 9/9/3
f 10/10/4 11/11/5 12/12/6
f 13/13/7 14/14/7 15/15/7
f 16/16/8 17/17/8 18/18/8
f 19/19/9 20/20/9 21/21/9
f 19/22/10 22/23/10 3/24/10
f 3/25/11 23/26/11 2/27/11
f 1/28/12 24/29/12 25/30/12
f 23/26/13 26/31/14 27/32/15
f 21/21/16 28/33/17 29/34/18
f 24/29/19 30/35/20 25/30/21
f 31/36/22 32/37/23 14/14/24
f 22/23/25 33/38/26 34/39/27
f 18/18/28 35/40/29 36/41/30
f 34/39/31 37/42/32 38/43/33
f 29/34/34 39/44/35 40/45/36
f 41/46/37 42/47/38 43/48/39
f 36/41/40 44/49/41 35/40/42
f 30/35/43 45/50/44 46/51/45
f 27/32/46 47/52/47 26/31/48
f 48/53/49 49/54/50 50/55/51
f 10/56/52 12/57/52 51/58/52
f 52/59/53 51/58/53 12/57/53
f 15/60/54 53/61/55 10/62/56
f 13/63/57 15/60/57 48/64/57
f 48/64/58 54/65/58 55/66/58
f 52/67/59 55/68/59 54/69/59
f 50/70/60 56/71/61 57/72/62
f 54/73/63 49/74/64 51/75/65
f 48/64/66 57/72/62 54/65/67
f 58/76/3 59/77/3 60/78/2
f 61/79/68 58/76/68 53/80/68
f 52/81/69 62/82/69 55/83/69
f 52/81/70 11/11/70 60/78/70
f 53/80/71 63/84/72 10/10/73
f 55/83/74 59/77/74 61/79/74
f 64/85/75 65/86/75 56/87/75
f 57/88/76 65/89/76 49/74/76
f 50/55/77 65/90/77 64/91/77
f 49/92/78 66/93/78 67/94/78
f 67/94/79 68/95/79 69/96/79
f 3/3/1 19/97/1 70/98/1
f 70/98/1 16/99/80 3/3/1
f 16/99/80 1/1/1 3/3/1
f 5/5/3 71/100/3 6/6/3
f 6/6/3 72/101/3 73/102/3
f 73/102/3 4/4/2 6/6/3
f 8/8/3 74/103/3 9/9/3
f 9/9/3 75/104/3 76/105/3
f 76/105/3 7/7/2 9/9/3
f 10/10/4 63/84/4 11/11/5
f 13/13/7 31/36/7 14/14/7
f 16/16/81 1/106/81 17/17/81
f 19/19/9 70/107/9 20/20/9
f 19/22/10 77/108/10 22/23/10
f 3/25/11 78/109/11 23/26/11
f 1/28/12 2/110/12 24/29/12
f 23/26/82 78/109/83 26/31/14
f 21/21/84 20/20/85 28/33/17
f 24/29/19 46/51/86 30/35/20
f 31/36/22 41/46/87 32/37/23
f 22/23/25 77/108/88 33/38/26
f 18/18/28 17/17/89 35/40/29
f 34/39/31 33/38/90 37/42/32
f 29/34/34 28/33/91 39/44/92
f 41/46/37 32/37/93 42/47/38
f 36/41/40 79/111/94 44/49/41
f 30/35/43 80/112/95 45/50/44
f 27/32/46 81/113/96 47/52/47
f 48/53/49 51/114/97 49/54/50
f 52/59/53 54/115/53 51/58/53
f 10/62/56 51/116/98 15/60/54
f 51/116/98 48/64/98 15/60/54
f 55/66/99 61/117/55 13/63/100
f 13/63/101 48/64/58 55/66/58
f 50/70/60 64/118/61 56/71/61
f 54/73/63 57/88/102 49/74/64
f 48/64/66 50/70/60 57/72/62
f 59/77/3 62/82/3 60/78/2
f 60/78/2 11/11/2 63/84/3
f 63/84/3 58/76/3 60/78/2
f 61/79/68 59/77/68 58/76/68
f 52/81/69 60/78/69 62/82/69
f 52/81/70 12/12/70 11/11/70
f 53/80/71 58/76/71 63/84/72
f 55/83/74 62/82/103 59/77/74
f 57/88/76 56/119/76 65/89/76
f 50/55/77 49/54/77 65/90/77
f 49/92/78 50/120/78 66/93/78
f 67/94/79 66/93/79 68/95/79
