# Blender v2.79 (sub 0) OBJ File: ''
# www.blender.org
o Iron_bigingot_Cube.006
v 0.501887 0.600463 -1.557077
v 0.497505 0.616826 -1.532712
v 0.552055 0.600561 -1.538417
v 0.644262 0.004740 -1.789098
v 0.620223 0.032627 -1.813920
v 0.669943 0.032529 -1.805328
v 0.552055 0.600561 1.538417
v 0.497505 0.616826 1.532712
v 0.501887 0.600463 1.557077
v 0.669943 0.032529 1.805328
v 0.620223 0.032627 1.813920
v 0.644262 0.004740 1.789098
v -0.501887 0.600463 -1.557077
v -0.552055 0.600561 -1.538417
v -0.497504 0.616826 -1.532712
v -0.669943 0.032529 -1.805328
v -0.620223 0.032627 -1.813920
v -0.644262 0.004740 -1.789098
v -0.552055 0.600561 1.538417
v -0.501887 0.600463 1.557077
v -0.497504 0.616826 1.532712
v -0.644262 0.004740 1.789098
v -0.620223 0.032627 1.813920
v -0.669943 0.032529 1.805328
vt 0.939177 0.063736
vt 0.540663 0.917788
vt 0.545807 0.074276
vt 0.399978 0.844278
vt 0.531949 0.066421
vt 0.527422 0.925771
vt 0.130659 0.997515
vt 0.387960 0.852921
vt 0.416390 0.997515
vt 0.373235 0.152210
vt 0.161570 0.850556
vt 0.147989 0.156618
vt 0.135075 0.155579
vt 0.018563 0.915092
vt 0.002564 0.097728
vt 0.147154 0.149972
vt 0.135409 0.152861
vt 0.933117 0.050543
vt 0.952419 0.055754
vt 0.149134 0.854648
vt 0.160949 0.857222
vt 0.947891 0.915104
vt 0.928427 0.920215
vt 0.934034 0.907249
vt 0.377868 0.144511
vt 0.387992 0.154166
vt 0.551413 0.061310
vt 0.390966 0.852931
vt 0.386816 0.846147
vt 0.546724 0.930981
vt 0.114108 0.010293
vt 0.518850 0.936170
vt 0.522633 0.054611
vt 0.374097 0.145546
vt 0.397223 0.002567
vt 0.148709 0.852100
vt 0.102727 0.011604
vt 0.119262 0.996429
vn 0.3289 -0.8754 -0.3542
vn -0.3289 -0.8754 0.3542
vn -0.3289 -0.8754 -0.3542
vn -0.9791 0.2032 -0.0000
vn -0.9620 -0.2730 -0.0000
vn 0.0889 0.4324 0.8973
vn -0.1284 0.6427 0.7553
vn -0.0889 0.4324 0.8973
vn -0.1207 0.9553 -0.2698
vn 0.1207 0.9553 0.2698
vn 0.1207 0.9553 -0.2699
vn 0.9791 0.2032 0.0000
vn 0.9620 -0.2730 0.0000
vn 0.1284 0.6427 -0.7553
vn 0.3152 0.8017 -0.5079
vn 0.0401 -0.6448 -0.7633
vn 0.1363 -0.5905 -0.7954
vn 0.3152 0.8017 0.5079
vn 0.1284 0.6427 0.7553
vn 0.1363 -0.5905 0.7954
vn 0.0401 -0.6448 0.7633
vn 0.3289 -0.8754 0.3542
vn -0.1284 0.6427 -0.7553
vn -0.3152 0.8017 -0.5079
vn -0.1363 -0.5905 -0.7954
vn -0.0401 -0.6448 -0.7633
vn -0.3152 0.8017 0.5079
vn -0.1207 0.9553 0.2699
vn -0.0401 -0.6448 0.7633
vn -0.1363 -0.5905 0.7954
vn 0.0889 0.4324 -0.8973
vn -0.1533 0.4461 0.8817
vn -0.0889 0.4324 -0.8973
vn 0.1533 0.4461 -0.8817
vn 0.1533 0.4461 0.8818
vn -0.1533 0.4461 -0.8818
s 1
f 4/1/1 22/2/2 18/3/3
f 19/4/4 16/5/5 24/6/5
f 11/7/6 20/8/7 23/9/8
f 15/10/9 8/11/10 2/12/11
f 3/13/12 10/14/13 6/15/13
f 1/16/14 2/12/11 3/17/15
f 4/1/1 5/18/16 6/19/17
f 7/20/18 8/11/10 9/21/19
f 10/22/20 11/23/21 12/24/22
f 13/25/23 14/26/24 15/10/9
f 16/5/25 17/27/26 18/3/3
f 19/4/27 20/28/7 21/29/28
f 22/2/2 23/30/29 24/6/30
f 18/3/3 24/6/5 16/5/5
f 18/3/3 5/18/16 4/1/1
f 3/17/15 5/31/31 1/16/14
f 23/32/8 19/4/27 24/6/32
f 11/7/6 7/20/18 9/21/19
f 17/33/33 14/26/24 13/25/23
f 21/29/28 9/21/19 8/11/10
f 8/11/10 3/13/15 2/12/11
f 12/24/22 23/30/29 22/2/2
f 15/10/9 19/4/27 21/29/28
f 2/12/11 13/34/23 15/10/9
f 12/24/22 6/19/13 10/22/13
f 13/34/23 5/31/31 17/35/33
f 4/1/1 12/24/22 22/2/2
f 19/4/4 14/26/4 16/5/5
f 11/7/6 9/21/19 20/8/7
f 15/10/9 21/29/28 8/11/10
f 3/13/12 7/36/12 10/14/13
f 18/3/3 22/2/2 24/6/5
f 18/3/3 17/27/26 5/18/16
f 3/17/15 6/37/34 5/31/31
f 23/32/8 20/28/7 19/4/27
f 11/7/6 10/38/35 7/20/18
f 17/33/33 16/5/36 14/26/24
f 21/29/28 20/8/7 9/21/19
f 8/11/10 7/36/18 3/13/15
f 12/24/22 11/23/21 23/30/29
f 15/10/9 14/26/24 19/4/27
f 2/12/11 1/16/14 13/34/23
f 12/24/22 4/1/1 6/19/13
f 13/34/23 1/16/14 5/31/31
