# Blender v2.79 (sub 0) OBJ File: ''
# www.blender.org
o Cube_Cube.001
v -0.313431 0.502160 0.336103
v -0.313431 0.502160 -0.324104
v -0.313431 1.162367 -0.324104
v -0.313431 1.162367 0.336103
v 0.606564 0.502160 -0.324104
v 0.606564 0.699589 -0.324104
v 0.442931 0.699589 -0.324104
v 0.405424 1.162367 -0.324104
v 0.606564 0.502160 0.336103
v 0.405424 1.162367 0.336103
v 0.442931 0.699589 0.336103
v 0.606564 0.699589 0.336103
v 0.718519 0.502160 -0.205388
v 0.718519 0.502160 0.217387
v 0.718519 0.699589 0.217387
v 0.718519 0.699589 -0.205388
v 0.666376 0.699589 -0.260680
v 0.442931 0.699589 -0.533392
v -0.623852 0.699589 -0.533392
v -0.581632 1.220517 -0.491172
v 0.400712 1.220517 -0.491172
v 0.477861 0.007321 0.473483
v 0.442931 0.699589 0.533392
v -0.623852 0.699589 0.533392
v -0.623852 0.007321 0.533392
v -0.623852 0.007321 -0.533392
v 0.477861 0.007321 -0.473483
v 0.594878 0.007321 0.438346
v 0.666376 0.699589 0.493809
v 0.797519 0.699589 -0.359836
v 0.666376 0.699589 -0.493809
v 0.666803 0.738871 -0.509811
v 0.802170 0.738871 -0.371522
v 0.594878 0.007320 -0.438346
v 0.666803 0.738871 0.509617
v 0.436162 0.738871 0.550475
v 0.663557 0.007321 0.319420
v 0.663557 0.007320 -0.319420
v 0.708678 0.007320 -0.123209
v 0.708678 0.007321 0.123209
v 0.797519 0.699589 0.359836
v 0.883678 0.699589 -0.138798
v 0.883678 0.699589 0.138798
v 0.666376 0.699589 0.272680
v 0.605244 0.738871 0.317677
v 0.661700 0.738871 0.257812
v -0.581632 1.220517 0.491172
v 0.400712 1.220517 0.491172
v 0.301526 1.434568 0.391986
v -0.482447 1.434568 0.391986
v 0.301526 1.434567 -0.391986
v -0.482447 1.434567 -0.391986
v -0.334171 1.531916 -0.243710
v 0.153250 1.531916 -0.243710
v -0.334171 1.531916 0.243710
v -0.334171 2.122549 0.243710
v -0.334171 2.122549 -0.243710
v 0.153250 1.531916 0.243710
v 0.153250 2.122549 -0.243710
v -0.242707 2.122549 -0.152246
v -0.242707 2.122549 -0.158177
v 0.074385 2.122549 -0.158177
v 0.153250 2.122549 0.243710
v 0.074385 1.270563 0.158915
v 0.074385 1.270563 -0.158177
v -0.242707 1.270563 -0.158177
v 0.802170 0.738871 0.371329
v 0.074385 2.122549 0.158915
v -0.242707 1.270563 0.158915
v -0.242707 2.122549 0.158915
v 0.661700 0.738871 -0.245619
v 0.710918 0.738871 -0.193430
v 0.715940 0.799927 -0.197170
v 0.665852 0.799927 -0.250281
v 0.891104 0.738871 0.143172
v 0.874585 0.799927 0.133443
v 0.791824 0.799927 0.345763
v 0.608399 0.799927 0.322967
v 0.665852 0.799927 0.262044
v 0.450794 0.738871 0.317677
v 0.451220 0.799927 0.512475
v 0.451220 0.799927 0.322967
v 0.436162 0.738871 -0.550668
v 0.710918 0.738871 0.205622
v 0.450794 0.738871 -0.305484
v 0.891104 0.738871 -0.143365
v 0.605244 0.738871 -0.305484
v 0.665852 0.799926 -0.474216
v 0.715940 0.799927 0.208933
v 0.665852 0.799927 0.474453
v 0.791824 0.799927 -0.345526
v 0.451220 0.799926 -0.512238
v 0.451220 0.799926 -0.311204
v 0.608399 0.799927 -0.311204
v 0.874585 0.799927 -0.133206
vt 0.860083 0.624334
vt 0.860083 0.426543
vt 0.983733 0.426543
vt 0.983733 0.624334
vt 0.536634 0.833129
vt 0.536747 0.635348
vt 0.708808 0.635348
vt 0.708775 0.694492
vt 0.678171 0.694492
vt 0.671077 0.833129
vt 0.709167 0.694493
vt 0.709134 0.635348
vt 0.881196 0.635348
vt 0.881308 0.833129
vt 0.746864 0.833129
vt 0.739771 0.694493
vt 0.860083 0.448309
vt 0.860083 0.627169
vt 0.736432 0.627169
vt 0.736432 0.448309
vt 0.028922 0.894720
vt 0.085864 0.894719
vt 0.085864 0.976913
vt 0.028922 0.976913
vt 0.758667 0.426543
vt 0.837848 0.426543
vt 0.029692 0.871646
vt 0.086634 0.871646
vt 0.029280 0.883973
vt 0.344594 0.363415
vt 0.337119 0.207264
vt 0.536634 0.207385
vt 0.528317 0.363527
vt 0.268318 0.634258
vt 0.061673 0.634256
vt 0.068803 0.426996
vt 0.268318 0.426873
vt 0.736432 0.635348
vt 0.536634 0.635346
vt 0.536634 0.428088
vt 0.736432 0.428090
vt 0.467708 0.892844
vt 0.268318 0.892844
vt 0.280312 0.679047
vt 0.457307 0.679047
vt 0.026619 0.426936
vt 0.039437 0.634193
vt 0.329989 0.000003
vt 0.536634 0.000000
vt 0.268318 0.219337
vt 0.269071 0.207595
vt 0.294935 0.207323
vt 0.295014 0.219056
vt 0.307753 0.000064
vt 0.450824 0.656338
vt 0.286964 0.656338
vt 0.070240 0.415264
vt 0.026697 0.415202
vt 0.392005 0.634254
vt 0.428646 0.643010
vt 0.309242 0.643010
vt 0.345948 0.634254
vt 0.032661 0.871608
vt 0.010388 0.871552
vt 0.000000 0.664214
vt 0.025092 0.664323
vt 0.159879 0.664323
vt 0.184971 0.664214
vt 0.174584 0.871552
vt 0.152310 0.871608
vt 0.115561 0.871646
vt 0.069410 0.871646
vt 0.066490 0.664394
vt 0.118481 0.664394
vt 0.017983 0.984776
vt 0.029280 0.987666
vt 0.029692 1.000000
vt 0.018371 0.996418
vt 0.240461 0.206404
vt 0.260001 0.270730
vt 0.076278 0.270844
vt 0.093839 0.206494
vt 0.728527 0.271828
vt 0.544544 0.271826
vt 0.928323 0.270444
vt 0.936231 0.426543
vt 0.899280 0.426543
vt 0.899280 0.287868
vt 0.775630 0.287868
vt 0.775630 0.426543
vt 0.736432 0.426543
vt 0.744340 0.270444
vt 0.388408 0.457261
vt 0.362155 0.427763
vt 0.508777 0.427852
vt 0.479567 0.457316
vt 0.909747 0.206234
vt 0.762916 0.206234
vt 0.709956 0.207035
vt 0.563126 0.207033
vt 0.682194 0.000001
vt 0.682194 0.176830
vt 0.590905 0.176829
vt 0.590905 0.000000
vt 0.881977 0.176947
vt 0.790687 0.176947
vt 0.211250 0.176938
vt 0.120091 0.176994
vt 0.101405 0.888275
vt 0.086634 0.871646
vt 0.177923 0.871646
vt 0.160793 0.889428
vt 0.160793 0.888275
vt 0.211250 0.000000
vt 0.120091 0.000056
vt 0.388408 0.634199
vt 0.479568 0.634254
vt 0.881977 0.000000
vt 0.790687 0.000000
vt 0.660031 0.972630
vt 0.536634 0.973126
vt 0.567753 0.906801
vt 0.627019 0.906563
vt 0.627019 0.845028
vt 0.660031 0.833129
vt 0.086634 0.999999
vt 0.000755 0.426662
vt 0.000000 0.414919
vt 0.881308 0.635348
vt 0.940696 0.635349
vt 0.940696 0.890425
vt 0.881308 0.890424
vt 0.940696 0.635385
vt 1.000000 0.635348
vt 1.000000 0.890581
vt 0.940696 0.890617
vt 0.536634 0.833624
vt 0.567753 0.845266
vt 0.467708 0.634254
vt 0.527097 0.634254
vt 0.527097 0.889500
vt 0.525986 0.889500
vt 0.467708 0.889500
vt 0.101405 0.949922
vt 0.160793 0.949922
vt 0.177923 0.966407
vt 0.086634 0.966407
vt 0.995535 0.255269
vt 0.936231 0.255233
vt 0.936231 0.000000
vt 0.995535 0.000036
vt 0.000345 0.885995
vt 0.017983 0.886902
vt 0.017644 0.897045
vt 0.000000 0.896318
vt 0.157244 0.634258
vt 0.162032 0.652558
vt 0.119300 0.652632
vt 0.117478 0.634326
vt 0.000345 0.985599
vt 0.000740 0.997446
vt 0.213968 0.877708
vt 0.196355 0.878737
vt 0.196255 0.833477
vt 0.213968 0.840865
vt 0.338557 0.218995
vt 0.017644 0.974627
vt 0.671314 0.880795
vt 0.660031 0.877437
vt 0.660031 0.836748
vt 0.671415 0.833129
vt 0.709605 0.706221
vt 0.738491 0.706221
vt 0.065634 0.652632
vt 0.022903 0.652558
vt 0.679449 0.706220
vt 0.708335 0.706220
vt 0.184971 0.875154
vt 0.184971 0.836798
vt 0.018371 0.875266
vt 0.200472 0.666669
vt 0.224065 0.641650
vt 0.224065 0.685186
vt 0.214684 0.695512
vt 0.214684 0.774464
vt 0.224065 0.784790
vt 0.224065 0.826085
vt 0.200472 0.801066
vt 0.264264 0.634258
vt 0.264264 0.673342
vt 0.234826 0.673342
vt 0.184971 0.707947
vt 0.184971 0.759787
vt 0.234826 0.796634
vt 0.264264 0.796634
vt 0.264264 0.833477
vt 0.067537 0.634326
vt 0.027772 0.634258
vt 0.067045 0.396893
vt 0.026524 0.396836
vt 0.689027 0.873324
vt 0.689027 0.834240
vt 0.000000 0.975270
vt 0.294837 0.237423
vt 0.335358 0.237366
vt 0.708972 0.724523
vt 0.738368 0.724523
vt 0.679576 0.724523
vt 0.708972 0.724523
vt 0.001680 0.396572
vt 0.000740 0.874155
vt 0.269994 0.237685
vn 0.6440 -0.3998 -0.6523
vn 0.5774 0.5774 -0.5774
vn 0.5774 0.5774 0.5774
vn 0.5180 -0.6674 0.5349
vn -0.3084 0.6279 0.7146
vn -0.3754 -0.2010 0.9048
vn -0.1024 -0.1129 0.9883
vn 0.4345 -0.4790 0.7628
vn -0.3756 -0.1993 -0.9051
vn -0.3084 0.6279 -0.7146
vn 0.6053 -0.4991 -0.6201
vn -0.1262 -0.0925 -0.9877
vn -0.9125 -0.1410 0.3840
vn -0.7197 0.6327 0.2858
vn -0.7197 0.6327 -0.2858
vn -0.9128 -0.1401 -0.3837
vn -0.9663 -0.2575 0.0008
vn 0.6721 0.3107 -0.6721
vn 0.0307 -0.1234 -0.9919
vn -0.7001 0.0448 -0.7126
vn -0.6721 0.3107 -0.6721
vn -0.5702 -0.5801 0.5817
vn 0.0853 -0.7078 0.7013
vn 0.0345 -0.1206 0.9921
vn -0.7014 0.0457 0.7113
vn -0.5681 -0.5800 -0.5838
vn 0.0867 -0.7050 -0.7038
vn 0.5050 -0.2346 0.8306
vn 0.3795 -0.6782 0.6293
vn 0.8251 0.0506 -0.5627
vn 0.8492 -0.2230 -0.4786
vn 0.5049 -0.2463 -0.8273
vn 0.4356 0.0624 -0.8980
vn 0.3833 -0.6743 -0.6312
vn -0.6073 0.0828 0.7901
vn 0.4359 0.0619 0.8979
vn 0.6338 -0.7671 0.0988
vn 0.5849 -0.7464 0.3174
vn 0.5887 -0.7419 -0.3210
vn 0.6356 -0.7652 -0.1022
vn 0.8507 -0.2166 0.4790
vn 0.9628 -0.2183 -0.1589
vn 0.9633 -0.2175 0.1572
vn -0.7224 -0.1180 -0.6813
vn -0.7174 -0.1659 -0.6766
vn -0.4079 -0.1665 -0.8977
vn -0.5069 0.6973 0.5069
vn -0.6721 0.3107 0.6721
vn 0.6721 0.3107 0.6721
vn 0.5069 0.6973 0.5069
vn 0.5121 0.6895 -0.5121
vn 0.5069 0.6973 -0.5069
vn -0.5069 0.6973 -0.5069
vn -0.5121 0.6895 -0.5121
vn -0.5774 0.5774 -0.5774
vn -0.5121 0.6895 0.5121
vn -0.5774 0.5774 0.5774
vn 0.5121 0.6895 0.5121
vn -0.3015 0.9045 0.3015
vn 0.7071 0.7071 0.0000
vn 0.5750 0.5819 0.5751
vn -0.1320 -0.8889 -0.4388
vn -0.6044 -0.5431 0.5829
vn 0.4973 -0.8660 0.0526
vn 0.8254 0.0501 0.5623
vn -0.5426 0.5822 -0.6055
vn 0.6276 -0.4637 -0.6254
vn 0.5756 0.5809 -0.5756
vn -0.4877 0.7421 0.4599
vn -0.7225 -0.1172 0.6814
vn -0.9359 -0.0916 0.3403
vn -0.6793 0.6804 0.2749
vn 0.5317 0.7845 0.3192
vn 0.9801 0.0409 0.1943
vn 0.6313 0.7676 0.1105
vn -0.4890 0.7405 -0.4611
vn -0.2937 0.6784 -0.6734
vn -0.5569 0.6206 -0.5520
vn -0.6239 -0.1003 -0.7751
vn -0.5060 0.7463 0.4324
vn -0.6072 0.0798 -0.7905
vn -0.9353 -0.0923 -0.3415
vn -0.6238 -0.1015 0.7750
vn 0.9800 0.0411 -0.1949
vn -0.4086 -0.1653 0.8976
vn 0.5308 0.7855 -0.3182
vn 0.3013 0.8075 -0.5071
vn -0.6803 0.6802 -0.2729
vn 0.3020 0.8060 0.5090
vn -0.5108 0.7457 -0.4278
vn -0.5591 0.6232 0.5469
vn -0.2915 0.6818 0.6710
vn 0.6310 0.7680 -0.1099
s 1
f 4/1/1 1/2/2 2/3/3
f 2/3/3 3/4/4 4/1/1
f 3/5/4 2/6/3 5/7/5
f 5/7/5 6/8/6 7/9/7
f 7/9/7 8/10/8 3/5/4
f 5/7/5 7/9/7 3/5/4
f 12/11/9 9/12/10 1/13/2
f 1/13/2 4/14/1 10/15/11
f 1/13/2 10/15/11 11/16/12
f 1/13/2 11/16/12 12/11/9
f 5/17/5 2/18/3 1/19/2
f 1/19/2 9/20/10 5/17/5
f 16/21/13 13/22/14 14/23/15
f 14/23/15 15/24/16 16/21/13
f 5/17/5 9/20/10 14/25/15
f 14/25/15 13/26/14 5/17/5
f 6/27/6 5/28/5 13/22/14
f 6/27/6 13/22/14 16/21/13
f 16/21/13 17/29/17 6/27/6
f 21/30/18 18/31/19 19/32/20
f 19/32/20 20/33/21 21/30/18
f 25/34/22 22/35/23 23/36/24
f 23/36/24 24/37/25 25/34/22
f 26/38/26 25/39/22 24/40/25
f 24/40/25 19/41/20 26/38/26
f 25/42/22 26/43/26 27/44/27
f 27/44/27 22/45/23 25/42/22
f 29/46/28 23/36/24 22/35/23
f 22/35/23 28/47/29 29/46/28
f 27/48/27 26/49/26 19/32/20
f 19/32/20 18/31/19 27/48/27
f 33/50/30 30/51/31 31/52/32
f 31/52/32 32/53/33 33/50/30
f 34/54/34 27/48/27 18/31/19
f 18/31/19 31/52/32 34/54/34
f 28/55/29 22/45/23 27/44/27
f 27/44/27 34/56/34 28/55/29
f 36/57/35 23/36/24 29/46/28
f 29/46/28 35/58/36 36/57/35
f 40/59/37 37/60/38 38/61/39
f 38/61/39 39/62/40 40/59/37
f 38/63/39 34/64/34 31/65/32
f 31/65/32 30/66/31 38/63/39
f 37/60/38 28/55/29 34/56/34
f 34/56/34 38/61/39 37/60/38
f 41/67/41 29/68/28 28/69/29
f 28/69/29 37/70/38 41/67/41
f 40/71/37 39/72/40 42/73/42
f 42/73/42 43/74/43 40/71/37
f 43/74/43 41/67/41 37/70/38
f 37/70/38 40/71/37 43/74/43
f 46/75/44 44/76/45 12/77/9
f 12/77/9 45/78/46 46/75/44
f 39/72/40 38/63/39 30/66/31
f 30/66/31 42/73/42 39/72/40
f 50/79/47 47/80/48 48/81/49
f 48/81/49 49/82/50 50/79/47
f 47/80/48 24/37/25 23/36/24
f 23/36/24 48/81/49 47/80/48
f 20/83/21 19/41/20 24/40/25
f 24/40/25 47/84/48 20/83/21
f 48/85/49 23/86/24 11/87/12
f 48/85/49 11/87/12 10/88/11
f 48/85/49 10/88/11 8/89/8
f 8/89/8 7/90/7 18/91/19
f 8/89/8 18/91/19 21/92/18
f 8/89/8 21/92/18 48/85/49
f 54/93/51 51/94/52 52/95/53
f 52/95/53 53/96/54 54/93/51
f 51/94/52 21/30/18 20/33/21
f 20/33/21 52/95/53 51/94/52
f 49/97/50 48/85/49 21/92/18
f 21/92/18 51/98/52 49/97/50
f 52/99/53 20/83/21 47/84/48
f 47/84/48 50/100/47 52/99/53
f 57/101/55 53/102/54 55/103/56
f 55/103/56 56/104/57 57/101/55
f 58/105/58 49/97/50 51/98/52
f 51/98/52 54/106/51 58/105/58
f 53/102/54 52/99/53 50/100/47
f 50/100/47 55/103/56 53/102/54
f 55/107/56 50/79/47 49/82/50
f 49/82/50 58/108/58 55/107/56
f 62/109/59 59/110/2 57/111/55
f 57/111/55 60/112/60 61/113/61
f 57/111/55 61/113/61 62/109/59
f 56/114/57 55/107/56 58/108/58
f 58/108/58 63/115/3 56/114/57
f 59/116/2 54/93/51 53/96/54
f 53/96/54 57/117/55 59/116/2
f 63/118/3 58/105/58 54/106/51
f 54/106/51 59/119/2 63/118/3
f 8/120/8 10/121/11 64/122/62
f 8/120/8 64/122/62 65/123/63
f 8/120/8 65/123/63 66/124/64
f 66/124/64 3/125/4 8/120/8
f 44/76/45 15/24/16 14/23/15
f 44/76/45 14/23/15 9/126/10
f 9/126/10 12/77/9 44/76/45
f 35/58/36 29/46/28 41/127/41
f 41/127/41 67/128/65 35/58/36
f 65/129/63 64/130/62 68/131/66
f 68/131/66 62/132/59 65/129/63
f 66/133/64 65/134/63 62/135/59
f 62/135/59 61/136/61 66/133/64
f 4/137/1 3/125/4 66/124/64
f 4/137/1 66/124/64 69/138/67
f 4/137/1 69/138/67 64/122/62
f 64/122/62 10/121/11 4/137/1
f 69/139/67 66/140/64 61/141/61
f 69/139/67 61/141/61 60/142/60
f 60/142/60 70/143/68 69/139/67
f 59/110/2 62/109/59 68/144/66
f 70/145/68 60/112/60 57/111/55
f 70/145/68 57/111/55 56/146/57
f 70/145/68 56/146/57 63/147/3
f 63/147/3 59/110/2 68/144/66
f 68/144/66 70/145/68 63/147/3
f 64/148/62 69/149/67 70/150/68
f 70/150/68 68/151/66 64/148/62
f 74/152/69 71/153/70 72/154/71
f 72/154/71 73/155/72 74/152/69
f 77/156/73 67/157/65 75/158/74
f 75/158/74 76/159/75 77/156/73
f 79/160/76 46/75/44 45/78/46
f 45/78/46 78/161/77 79/160/76
f 82/162/78 80/163/79 36/164/35
f 36/164/35 81/165/80 82/162/78
f 71/153/70 17/29/17 16/21/13
f 16/21/13 72/154/71 71/153/70
f 32/53/33 31/52/32 18/31/19
f 18/31/19 83/166/81 32/53/33
f 72/154/71 16/21/13 15/24/16
f 15/24/16 84/167/82 72/154/71
f 83/168/81 18/169/19 7/170/7
f 7/170/7 85/171/83 83/168/81
f 67/157/65 41/67/41 43/74/43
f 43/74/43 75/158/74 67/157/65
f 45/172/46 12/11/9 11/16/12
f 11/16/12 80/173/79 45/172/46
f 86/174/84 42/73/42 30/66/31
f 30/66/31 33/175/30 86/174/84
f 85/176/83 7/9/7 6/8/6
f 6/8/6 87/177/85 85/176/83
f 80/163/79 11/178/12 23/179/24
f 23/179/24 36/164/35 80/163/79
f 87/180/85 6/27/6 17/29/17
f 17/29/17 71/153/70 87/180/85
f 75/158/74 43/74/43 42/73/42
f 42/73/42 86/174/84 75/158/74
f 84/167/82 15/24/16 44/76/45
f 44/76/45 46/75/44 84/167/82
f 91/181/86 88/182/87 74/183/69
f 91/181/86 74/183/69 73/184/72
f 91/181/86 73/184/72 89/185/88
f 89/185/88 79/186/76 90/187/89
f 89/185/88 90/187/89 77/188/73
f 89/185/88 77/188/73 91/181/86
f 88/182/87 92/189/90 93/190/91
f 88/182/87 93/190/91 94/191/92
f 94/191/92 74/183/69 88/182/87
f 95/192/93 91/181/86 77/188/73
f 77/188/73 76/193/75 95/192/93
f 90/187/89 79/186/76 78/194/77
f 90/187/89 78/194/77 82/195/78
f 82/195/78 81/196/80 90/187/89
f 95/197/93 86/174/84 33/175/30
f 33/175/30 91/198/86 95/197/93
f 81/199/80 36/57/35 35/58/36
f 35/58/36 90/200/89 81/199/80
f 92/201/90 83/168/81 85/171/83
f 85/171/83 93/202/91 92/201/90
f 73/155/72 72/154/71 84/167/82
f 84/167/82 89/203/88 73/155/72
f 88/204/87 32/53/33 83/166/81
f 83/166/81 92/205/90 88/204/87
f 78/206/77 45/172/46 80/173/79
f 80/173/79 82/207/78 78/206/77
f 93/208/91 85/176/83 87/177/85
f 87/177/85 94/209/92 93/208/91
f 90/200/89 35/58/36 67/128/65
f 67/128/65 77/210/73 90/200/89
f 94/211/92 87/180/85 71/153/70
f 71/153/70 74/152/69 94/211/92
f 91/212/86 33/50/30 32/53/33
f 32/53/33 88/204/87 91/212/86
f 89/203/88 84/167/82 46/75/44
f 46/75/44 79/160/76 89/203/88
f 76/159/75 75/158/74 86/174/84
f 86/174/84 95/197/93 76/159/75
